<svg width="58" height="58" viewBox="0 0 58 58" fill="none" xmlns="http://www.w3.org/2000/svg">
<g clip-path="url(#clip0)" filter="url(#filter0_d)">
<path d="M51.8435 33.9921C52.8682 32.6851 53.3596 31.284 53.2968 29.8411C53.2341 28.2518 52.5231 27.0075 51.9376 26.2442C52.6172 24.5504 52.8786 21.8841 50.6097 19.8139C48.9472 18.2978 46.1241 17.6182 42.2136 17.8064C39.4637 17.9318 37.1634 18.4442 37.0693 18.4651H37.0589C36.5361 18.5592 35.9819 18.6742 35.4173 18.7997C35.3755 18.1305 35.4905 16.468 36.7243 12.7248C38.1881 8.2706 38.1045 4.86198 36.4524 2.5826C34.7168 0.188206 31.9459 0 31.1304 0C30.3462 0 29.6247 0.324132 29.1124 0.920117C27.9518 2.26892 28.0877 4.75742 28.2341 5.90757C26.8539 9.60895 22.9853 18.6847 19.7126 21.2045C19.6498 21.2463 19.5976 21.2986 19.5453 21.3509C18.5833 22.3651 17.9351 23.463 17.4959 24.4249C16.879 24.0903 16.1785 23.9021 15.4257 23.9021H9.04758C6.64273 23.9021 4.69794 25.8574 4.69794 28.2518V45.2426C4.69794 47.6474 6.65319 49.5922 9.04758 49.5922H15.4257C16.3562 49.5922 17.2241 49.2995 17.9351 48.7976L20.3922 49.0903C20.7686 49.1426 27.4604 49.9895 34.3299 49.8536C35.5741 49.9477 36.7452 50 37.8326 50C39.7042 50 41.3353 49.8536 42.6946 49.5609C45.8941 48.8812 48.0794 47.522 49.1877 45.5249C50.0346 43.9983 50.0346 42.4822 49.8987 41.5203C51.9794 39.6382 52.3454 37.5575 52.2722 36.0937C52.2304 35.2468 52.0421 34.5253 51.8435 33.9921ZM9.04758 46.7691C8.20066 46.7691 7.52102 46.079 7.52102 45.2426V28.2413C7.52102 27.3944 8.21111 26.7148 9.04758 26.7148H15.4257C16.2726 26.7148 16.9522 27.4049 16.9522 28.2413V45.2321C16.9522 46.079 16.2621 46.7587 15.4257 46.7587H9.04758V46.7691ZM49.1668 32.7687C48.7276 33.2288 48.644 33.9293 48.9786 34.473C48.9786 34.4835 49.4073 35.2154 49.4595 36.2192C49.5327 37.5889 48.874 38.8018 47.4938 39.8369C47.0024 40.2133 46.8037 40.8616 47.0129 41.4471C47.0129 41.4575 47.4625 42.8377 46.7306 44.1447C46.03 45.3994 44.4721 46.2986 42.1091 46.8005C40.2165 47.2083 37.6444 47.2815 34.4867 47.0305C34.4449 47.0305 34.3926 47.0305 34.3403 47.0305C27.6172 47.1769 20.8209 46.2986 20.7477 46.2882H20.7372L19.6812 46.1627C19.7439 45.8699 19.7753 45.5563 19.7753 45.2426V28.2413C19.7753 27.7917 19.7021 27.3526 19.5766 26.9448C19.7649 26.2442 20.2876 24.6863 21.5214 23.3584C26.2161 19.6361 30.8063 7.07863 31.0049 6.53492C31.0886 6.31535 31.1095 6.07486 31.0677 5.83438C30.8899 4.66332 30.9526 3.23087 31.2036 2.80217C31.7577 2.81263 33.2529 2.96947 34.1521 4.21372C35.2186 5.688 35.1768 8.32288 34.0267 11.8151C32.2701 17.1372 32.1237 19.9394 33.5143 21.1731C34.2044 21.79 35.1245 21.8214 35.7937 21.5809C36.4315 21.4345 37.038 21.3091 37.613 21.215C37.6549 21.2045 37.7071 21.1941 37.749 21.1836C40.9589 20.4831 46.7096 20.0544 48.7067 21.8737C50.4006 23.4212 49.1981 25.4705 49.0622 25.6901C48.6754 26.2756 48.7904 27.0389 49.3132 27.5094C49.3236 27.5199 50.4215 28.555 50.4738 29.9456C50.5156 30.8762 50.0764 31.8277 49.1668 32.7687Z" fill="#2E2F22"/>
</g>
<defs>
<filter id="filter0_d" x="0" y="0" width="58" height="58" filterUnits="userSpaceOnUse" color-interpolation-filters="sRGB">
<feFlood flood-opacity="0" result="BackgroundImageFix"/>
<feColorMatrix in="SourceAlpha" type="matrix" values="0 0 0 0 0 0 0 0 0 0 0 0 0 0 0 0 0 0 127 0"/>
<feOffset dy="4"/>
<feGaussianBlur stdDeviation="2"/>
<feColorMatrix type="matrix" values="0 0 0 0 0 0 0 0 0 0 0 0 0 0 0 0 0 0 0.25 0"/>
<feBlend mode="normal" in2="BackgroundImageFix" result="effect1_dropShadow"/>
<feBlend mode="normal" in="SourceGraphic" in2="effect1_dropShadow" result="shape"/>
</filter>
<clipPath id="clip0">
<rect width="50" height="50" fill="white" transform="translate(4)"/>
</clipPath>
</defs>
</svg>
